<?xml version="1.0" encoding="utf-8"?>
<!-- Generator: Adobe Illustrator 26.0.1, SVG Export Plug-In . SVG Version: 6.00 Build 0)  -->
<svg version="1.1" id="Layer_1" xmlns="http://www.w3.org/2000/svg" xmlns:xlink="http://www.w3.org/1999/xlink" x="0px" y="0px"
	 viewBox="0 0 1080 1080" style="enable-background:new 0 0 1080 1080;" xml:space="preserve">
<style type="text/css">
	.st0{fill:#FFFFFF;}
	.st1{fill:#00A652;}
	.st2{fill:#F11B20;}
</style>
<path class="st0" d="M1038.6,540.4C1040.8,263.3,805,24.1,510.5,40.8C259.3,55.1,42.8,266.2,41.4,537.6
	c-1.4,272.3,216.5,499.8,492.3,502.4C814.2,1042.5,1038.5,818.7,1038.6,540.4z"/>
<path class="st1" d="M539.7,1000.4C282.1,999.7,74.8,788,81,528.6C86.9,282.9,284.9,84.2,530.9,79.7
	c265.3-4.9,468.8,211.8,468.2,460.9C998.5,789.1,798.5,999.8,539.7,1000.4z M985.1,540.2c1.9-247.4-208.5-460.9-471.5-446
	C289.4,106.9,96.1,295.4,94.8,537.7c-1.3,243.1,193.2,446.2,439.4,448.4C784.8,988.4,985,788.6,985.1,540.2z"/>
<path class="st1" d="M724.5,351.1c20.4,31.1,32.3,63,35.7,97.7c10.8,107.9-53.2,207.5-155.8,242c-66.2,22.3-129.8,11.5-190.9-19
	c-35.3-17.7-66.9-40.9-94.9-68.5c29.4,8,58.4,17.5,88.1,23.6c56.3,11.5,112.6,11.8,166.5-11.3c64.9-27.7,104.8-78.8,130.3-143
	c13.1-33,19.8-67.5,22.1-102.9C726.1,364.3,725.1,358.9,724.5,351.1z"/>
<path class="st2" d="M632.4,197.7c19.1,70,4.8,131.7-58.9,178.9c-33,24.5-67.6,46.8-100.4,71.5c-33.1,24.8-59,55.9-74.2,95.1
	c-0.6,1.6-1.3,3.1-2.1,4.6c-0.4,0.6-1.2,0.9-2.7,2c-11.2-52.7-1.1-99.7,38.4-136.2c29.5-27.2,62.5-50.6,94.5-75
	c35.3-27,68.3-56,88.1-96.9C622,227.5,626.7,212.3,632.4,197.7z"/>
<path class="st2" d="M375.9,403.7c-18.2-58.9-5.7-104.3,37.8-137.7c25.5-19.6,52.9-36.8,79.3-55.3c33.3-23.4,60.2-51.8,70.7-95.7
	c13.9,35.4,13.1,67.8-9,95.2c-17.6,21.9-39.7,40.5-61,59.1c-16.4,14.3-35,25.9-52.1,39.4C410.3,333.5,381.6,360.3,375.9,403.7z"/>
<path class="st2" d="M383.2,769.4h-28.4v93.3c0,5.4-1.2,9.4-3.6,12c-2.4,2.6-5.8,4-9.3,3.9c-3.6,0.1-7-1.3-9.4-3.9
	c-2.4-2.6-3.6-6.6-3.6-11.9v-93.4h-28.4c-4.4,0-7.7-1-9.9-2.9c-2.2-2-3.4-4.8-3.2-7.8c-0.1-3,1.1-5.9,3.4-7.9
	c2.2-1.9,5.5-2.8,9.8-2.8h82.7c4.5,0,7.8,1,10,3c2.2,2,3.4,4.8,3.3,7.8c0.1,3-1.1,5.8-3.3,7.8C390.9,768.5,387.6,769.4,383.2,769.4z
	"/>
<path class="st2" d="M482.8,861.9l-6.1-16.1h-52.2l-6.1,16.5c-2.4,6.4-4.4,10.8-6.1,13c-1.7,2.2-4.5,3.4-8.3,3.4
	c-3.3,0-6.4-1.3-8.7-3.6c-2.4-2.1-3.7-5-3.8-8.2c0-1.8,0.3-3.7,0.9-5.4c0.6-1.9,1.5-4.5,2.9-7.8l32.8-83.4c0.9-2.4,2.1-5.3,3.4-8.6
	c1.1-2.9,2.5-5.7,4.2-8.4c1.5-2.2,3.5-4.1,5.9-5.4c2.8-1.5,5.9-2.2,9-2.1c3.2-0.1,6.3,0.6,9.1,2.1c2.3,1.3,4.3,3.1,5.9,5.3
	c1.5,2.2,2.8,4.5,3.8,7c1,2.5,2.3,5.8,3.9,10l33.6,82.9c2.6,6.3,4,10.9,4,13.8c-0.1,3.1-1.4,6.1-3.7,8.2c-2.4,2.4-5.6,3.8-9,3.7
	c-1.8,0.1-3.6-0.3-5.3-1.1c-1.4-0.7-2.7-1.7-3.7-3c-1.3-1.8-2.4-3.7-3.2-5.8C484.6,866.2,483.6,863.9,482.8,861.9z M431.3,826.2
	h38.4l-19.4-53L431.3,826.2z"/>
<path class="st2" d="M611.9,861.9l-6.1-16.1h-52.2l-6.1,16.5c-2.4,6.4-4.4,10.8-6.1,13c-1.7,2.2-4.5,3.4-8.3,3.4
	c-3.3,0-6.4-1.3-8.7-3.6c-2.4-2.1-3.7-5-3.8-8.2c0-1.8,0.3-3.7,0.9-5.4c0.6-1.9,1.5-4.5,2.9-7.8l32.9-83.4c0.9-2.4,2.1-5.3,3.4-8.6
	c1.1-2.9,2.5-5.7,4.2-8.4c1.5-2.2,3.5-4.1,5.9-5.4c2.8-1.5,5.9-2.2,9-2.1c3.2-0.1,6.3,0.6,9.1,2.1c2.3,1.3,4.3,3.1,5.9,5.3
	c1.5,2.2,2.8,4.5,3.8,7c1,2.5,2.3,5.8,3.9,10l33.5,82.9c2.6,6.3,3.9,10.9,3.9,13.8c-0.1,3.1-1.4,6.1-3.7,8.2c-2.4,2.4-5.6,3.8-9,3.7
	c-1.8,0.1-3.6-0.3-5.3-1.1c-1.4-0.7-2.7-1.7-3.7-3c-1.3-1.8-2.4-3.7-3.2-5.8C613.7,866.2,612.7,863.9,611.9,861.9z M560.4,826.2
	h38.4l-19.4-53L560.4,826.2z"/>
<path class="st2" d="M702.2,857.1l-20.6-81.9v88.7c0,4.9-1.1,8.6-3.3,11c-4.6,4.8-12.3,5-17.1,0.3c-0.1-0.1-0.2-0.2-0.2-0.2
	c-2.2-2.4-3.3-6.1-3.3-11.1V762.2c0-5.6,1.5-9.4,4.4-11.3c2.9-2,6.9-2.9,11.8-2.9h8.1c4.8,0,8.4,0.4,10.6,1.3
	c2.2,0.9,3.9,2.6,4.9,4.7c1.5,3.6,2.7,7.3,3.6,11.1l18.7,70.4l18.7-70.4c0.9-3.8,2.1-7.5,3.6-11.2c0.9-2.2,2.7-3.9,4.9-4.7
	c2.2-0.9,5.7-1.3,10.6-1.3h8.1c5,0,8.9,1,11.8,2.9s4.4,5.7,4.4,11.3v101.7c0,4.9-1.1,8.6-3.3,11c-2.2,2.5-5.5,3.8-8.8,3.7
	c-3.2,0.1-6.3-1.2-8.5-3.6c-2.2-2.5-3.3-6.1-3.3-11v-88.7l-20.6,81.9c-1.3,5.3-2.4,9.2-3.3,11.7c-0.9,2.6-2.6,5-4.7,6.8
	c-2.3,2.1-5.4,3.1-9.5,3.1c-5.2,0.2-10.1-2.5-12.6-7c-1.2-2.1-2.1-4.4-2.8-6.8C703.6,862.3,702.9,859.8,702.2,857.1z"/>
</svg>
